<svg width="519" height="658" viewBox="0 0 519 658" fill="none" xmlns="http://www.w3.org/2000/svg">
<path d="M518.082 168.529V443.541C518.082 480.106 500.059 501.941 486.882 517.847C475.871 531.212 470.129 538.694 470.129 550.506V634.412C470.129 647.4 459.588 657.941 446.6 657.941C433.612 657.941 423.071 647.4 423.071 634.412V550.506C423.071 521.188 438.365 502.694 450.647 487.871C462.035 474.082 471.071 463.212 471.071 443.588V168.529C471.071 153.847 458.459 140.012 445.141 140.012C429.659 140.012 426.365 142.412 426.223 142.506C423.118 146.694 423.212 169.282 423.259 187.494C423.306 196.388 423.353 206.318 423.165 217.235C422.976 230.129 413.141 239.729 399.447 240.435C386.553 240.341 376.106 229.847 376.106 216.906V117.141C376.106 102.694 365.659 91.8235 351.824 91.8235C339.118 91.8235 329.8 101.282 328.671 114.788V209.047C328.671 222.035 318.129 232.576 305.141 232.576C292.153 232.576 281.612 222.035 281.612 209.047V114.412C281.612 114.271 281.518 114.129 281.518 113.941V77.5647C281.518 74.4588 280.859 47.353 259.212 47.353C238.035 47.353 234.835 66.2706 234.835 77.5647V110.647C234.835 111.965 235.071 113.141 234.835 114.412L236.082 236.529C236.082 249.518 223.541 260.059 210.553 260.059C197.565 260.059 187.024 249.518 187.024 236.529V110.224C184.765 101.094 178.176 91.8706 165.094 91.8706C151.635 91.8706 140.294 104.153 140.294 118.694V276.341C140.294 276.671 140.012 276.953 140.012 277.282V329.094C140.012 342.082 129.471 352.624 116.482 352.624C103.494 352.624 92.9529 342.082 92.9529 329.094V289.847C84.6706 286.835 72.6706 284.388 65.8 285.941C60.2471 287.024 54.6471 291.918 51.1647 298.694C48.3882 304.012 44.6706 315.024 50.7412 328.671L130.647 503.588C131.4 505.235 131.918 506.929 132.294 508.671C134.929 521.612 146.976 530.129 159.965 528.953C166.506 528.106 173.188 530.365 178.176 534.835C183.118 539.306 185.988 545.659 185.988 552.341V634.412C185.988 647.4 175.447 657.941 162.459 657.941C149.471 657.941 138.929 647.4 138.929 634.412V573.894C113.706 567.353 93.3294 547.494 86.8353 520.953L7.82355 348.012C-2.52939 324.671 -1.91763 298.929 9.32943 277.094C19.4 257.659 37 243.729 56.4353 239.776C66.3177 237.753 79.6824 238.318 92.9059 241V207.118C92.9059 206.647 93.1412 206.224 93.1882 205.753V118.694C93.1882 77.9412 125.471 44.8118 165.047 44.8118C174.459 44.8118 183.494 46.6941 191.682 50.0824C201.047 19.7765 226.176 0.341187 259.118 0.341187C290.553 0.341187 315.212 20.2 324.482 50.2706C332.859 46.7412 342.035 44.8118 351.729 44.8118C384.153 44.8118 410.929 65.7059 419.823 95.2588C428.435 93.3765 437.188 92.9529 445.047 92.9529C484.671 92.9529 518.082 127.541 518.082 168.529Z" fill="white"/>
</svg>
